<svg xmlns="http://www.w3.org/2000/svg" viewBox="0 0 1055.72 1100.03"><defs><style>.cls-1{opacity:0.15;}.cls-2{fill:#fff;}</style></defs><g id="Layer_2" data-name="Layer 2"><g id="Layer_1-2" data-name="Layer 1"><g class="cls-1"><path class="cls-2" d="M447,946.66H364.35V309.6h80.58V558.7l8.89,2q48.48-94.24,96.94-188.49c36.69-71.69,36.59-71.74,123.88-61.68-22.49,44.62-44,87.34-65.59,130-11,21.69-22.3,43.22-33.34,64.89-65.23,128-64.69,134.24,24.43,261.76,9-13.34,18.37-24.73,25-37.55,59.29-114.62,122.53-227.49,175.7-344.9,44.61-98.55,13.38-142.08-93.67-150-45-3.34-47.49-8.67-35.08-81,61.22-6.51,120,2.17,172.6,36.86,53.59,35.37,77.88,103.26,51,175C859.68,462,813.57,554.67,771.27,648.73c-8.49,18.88-19.23,36.74-32,60.92H895.37v81.51H616.13C634.67,865.87,640.91,871,709.78,871c77.58,0,155.17-.51,232.74.29,23.2.23,37.08-3.81,37-31.87-.79-246.43-.6-492.87-1-739.3,0-5.78-2.78-11.56-5.5-22.11H0V0H1055.72V950.05c-46.08,0-91.14-.11-136.19,0-92.79.28-185.63-.77-278.36,1.85-33.36,1-52-8.83-66.78-39.61C536.45,833,494.8,755.53,447,678.32Z"/><path class="cls-2" d="M187.83,232.45H82.11v788.62h973.18v79H.34V154.64H484.77v75.53H271V853.25H187.83Z"/></g></g></g></svg>