<svg xmlns="http://www.w3.org/2000/svg" viewBox="0 0 105.02 141.48"><defs><style>.cls-1{fill:#fff;}.cls-2{font-size:15.38px;fill:red;font-family:Arial-BoldMT, Arial;font-weight:700;letter-spacing:0.05em;}</style></defs><g id="Layer_2" data-name="Layer 2"><g id="Layer_1-2" data-name="Layer 1"><path class="cls-1" d="M44.7,93.81H36.52V30.68h8V55.36l.88.21c3.2-6.23,6.42-12.45,9.61-18.68,3.63-7.11,3.62-7.11,12.27-6.11-2.23,4.42-4.35,8.65-6.5,12.88-1.09,2.15-2.21,4.28-3.3,6.43C51,62.77,51.05,63.39,59.88,76a40.82,40.82,0,0,0,2.48-3.73C68.23,61,74.5,49.76,79.77,38.13c4.42-9.77,1.33-14.08-9.28-14.87-4.47-.33-4.71-.86-3.48-8,6.07-.64,11.9.22,17.1,3.65s7.72,10.24,5.06,17.35C85.6,45.78,81,55,76.84,64.28c-.84,1.88-1.91,3.65-3.18,6H89.14V78.4H61.46c1.84,7.4,2.46,7.91,9.28,7.91,7.69,0,15.38,0,23.07,0,2.3,0,3.67-.38,3.66-3.16-.08-24.42-.06-48.84-.09-73.26a11.21,11.21,0,0,0-.55-2.19H.41V0H105V94.14c-4.56,0-9,0-13.49,0-9.2,0-18.4-.08-27.58.18-3.31.09-5.16-.88-6.62-3.93A243.07,243.07,0,0,0,44.7,67.22Z"/><path class="cls-1" d="M19,23H8.55v78.15H105V109H.44V15.32h48v7.49H27.27V84.55H19Z"/><text class="cls-2" transform="translate(0 135.69)">OUTFITTERS</text></g></g></svg>